<mxfile host="app.diagrams.net" modified="2023-10-28T11:43:23.108Z" agent="Mozilla/5.0 (Windows NT 10.0; Win64; x64) AppleWebKit/537.36 (KHTML, like Gecko) Chrome/118.0.0.0 Safari/537.36" etag="uGiRCSyqjR9wushW8JCk" version="22.0.8" type="device">
  <diagram name="Страница — 1" id="4fDfXlQNAs49f-it0H0f">
    <mxGraphModel dx="2868" dy="1564" grid="1" gridSize="10" guides="1" tooltips="1" connect="1" arrows="1" fold="1" page="1" pageScale="1" pageWidth="1920" pageHeight="1200" background="#ffffff" math="0" shadow="0">
      <root>
        <mxCell id="0" />
        <mxCell id="1" parent="0" />
        <mxCell id="kuulLkyMVZdF7MULND2Z-120" style="edgeStyle=orthogonalEdgeStyle;rounded=1;orthogonalLoop=1;jettySize=auto;html=1;exitX=0.25;exitY=1;exitDx=0;exitDy=0;entryX=0.5;entryY=0;entryDx=0;entryDy=0;labelBackgroundColor=none;fontColor=default;" edge="1" parent="1" source="kuulLkyMVZdF7MULND2Z-1" target="kuulLkyMVZdF7MULND2Z-53">
          <mxGeometry relative="1" as="geometry" />
        </mxCell>
        <mxCell id="kuulLkyMVZdF7MULND2Z-121" style="edgeStyle=orthogonalEdgeStyle;rounded=1;orthogonalLoop=1;jettySize=auto;html=1;exitX=0.75;exitY=1;exitDx=0;exitDy=0;entryX=0.5;entryY=0;entryDx=0;entryDy=0;labelBackgroundColor=none;fontColor=default;" edge="1" parent="1" source="kuulLkyMVZdF7MULND2Z-1" target="kuulLkyMVZdF7MULND2Z-22">
          <mxGeometry relative="1" as="geometry" />
        </mxCell>
        <mxCell id="kuulLkyMVZdF7MULND2Z-1" value="&lt;font face=&quot;Comic Sans MS&quot;&gt;How many meals a day do you eat?&lt;/font&gt;" style="rounded=1;whiteSpace=wrap;html=1;labelBackgroundColor=none;" vertex="1" parent="1">
          <mxGeometry width="200" height="60" as="geometry" />
        </mxCell>
        <mxCell id="kuulLkyMVZdF7MULND2Z-124" style="edgeStyle=orthogonalEdgeStyle;rounded=1;orthogonalLoop=1;jettySize=auto;html=1;exitX=0.25;exitY=1;exitDx=0;exitDy=0;entryX=0.5;entryY=0;entryDx=0;entryDy=0;labelBackgroundColor=none;fontColor=default;" edge="1" parent="1" source="kuulLkyMVZdF7MULND2Z-3" target="kuulLkyMVZdF7MULND2Z-56">
          <mxGeometry relative="1" as="geometry" />
        </mxCell>
        <mxCell id="kuulLkyMVZdF7MULND2Z-125" style="edgeStyle=orthogonalEdgeStyle;rounded=1;orthogonalLoop=1;jettySize=auto;html=1;exitX=0.75;exitY=1;exitDx=0;exitDy=0;entryX=0.5;entryY=0;entryDx=0;entryDy=0;labelBackgroundColor=none;fontColor=default;" edge="1" parent="1" source="kuulLkyMVZdF7MULND2Z-3" target="kuulLkyMVZdF7MULND2Z-57">
          <mxGeometry relative="1" as="geometry" />
        </mxCell>
        <mxCell id="kuulLkyMVZdF7MULND2Z-3" value="&lt;font face=&quot;Comic Sans MS&quot;&gt;How many fruits and vegetables do you consume per day?&lt;/font&gt;" style="rounded=1;whiteSpace=wrap;html=1;align=center;labelBackgroundColor=none;" vertex="1" parent="1">
          <mxGeometry x="400" width="200" height="60" as="geometry" />
        </mxCell>
        <mxCell id="kuulLkyMVZdF7MULND2Z-122" style="edgeStyle=orthogonalEdgeStyle;rounded=1;orthogonalLoop=1;jettySize=auto;html=1;exitX=0.25;exitY=1;exitDx=0;exitDy=0;entryX=0.5;entryY=0;entryDx=0;entryDy=0;labelBackgroundColor=none;fontColor=default;" edge="1" parent="1" source="kuulLkyMVZdF7MULND2Z-4" target="kuulLkyMVZdF7MULND2Z-54">
          <mxGeometry relative="1" as="geometry" />
        </mxCell>
        <mxCell id="kuulLkyMVZdF7MULND2Z-123" style="edgeStyle=orthogonalEdgeStyle;rounded=1;orthogonalLoop=1;jettySize=auto;html=1;exitX=0.75;exitY=1;exitDx=0;exitDy=0;entryX=0.5;entryY=0;entryDx=0;entryDy=0;labelBackgroundColor=none;fontColor=default;" edge="1" parent="1" source="kuulLkyMVZdF7MULND2Z-4" target="kuulLkyMVZdF7MULND2Z-55">
          <mxGeometry relative="1" as="geometry" />
        </mxCell>
        <mxCell id="kuulLkyMVZdF7MULND2Z-4" value="&lt;font face=&quot;Comic Sans MS&quot;&gt;How many calories do you consume per day?&lt;/font&gt;" style="rounded=1;whiteSpace=wrap;html=1;labelBackgroundColor=none;" vertex="1" parent="1">
          <mxGeometry x="200" width="200" height="60" as="geometry" />
        </mxCell>
        <mxCell id="kuulLkyMVZdF7MULND2Z-130" style="edgeStyle=orthogonalEdgeStyle;rounded=1;orthogonalLoop=1;jettySize=auto;html=1;exitX=0.25;exitY=1;exitDx=0;exitDy=0;entryX=0.5;entryY=0;entryDx=0;entryDy=0;labelBackgroundColor=none;fontColor=default;" edge="1" parent="1" source="kuulLkyMVZdF7MULND2Z-5" target="kuulLkyMVZdF7MULND2Z-87">
          <mxGeometry relative="1" as="geometry" />
        </mxCell>
        <mxCell id="kuulLkyMVZdF7MULND2Z-131" style="edgeStyle=orthogonalEdgeStyle;rounded=1;orthogonalLoop=1;jettySize=auto;html=1;exitX=0.75;exitY=1;exitDx=0;exitDy=0;entryX=0.5;entryY=0;entryDx=0;entryDy=0;labelBackgroundColor=none;fontColor=default;" edge="1" parent="1" source="kuulLkyMVZdF7MULND2Z-5" target="kuulLkyMVZdF7MULND2Z-86">
          <mxGeometry relative="1" as="geometry" />
        </mxCell>
        <mxCell id="kuulLkyMVZdF7MULND2Z-5" value="&lt;font face=&quot;Comic Sans MS&quot;&gt;What is your main nutritional goal?&lt;/font&gt;" style="rounded=1;whiteSpace=wrap;html=1;labelBackgroundColor=none;" vertex="1" parent="1">
          <mxGeometry x="1000" width="200" height="60" as="geometry" />
        </mxCell>
        <mxCell id="kuulLkyMVZdF7MULND2Z-128" style="edgeStyle=orthogonalEdgeStyle;rounded=1;orthogonalLoop=1;jettySize=auto;html=1;exitX=0.25;exitY=1;exitDx=0;exitDy=0;entryX=0.5;entryY=0;entryDx=0;entryDy=0;labelBackgroundColor=none;fontColor=default;" edge="1" parent="1" source="kuulLkyMVZdF7MULND2Z-7" target="kuulLkyMVZdF7MULND2Z-61">
          <mxGeometry relative="1" as="geometry" />
        </mxCell>
        <mxCell id="kuulLkyMVZdF7MULND2Z-129" style="edgeStyle=orthogonalEdgeStyle;rounded=1;orthogonalLoop=1;jettySize=auto;html=1;exitX=0.75;exitY=1;exitDx=0;exitDy=0;entryX=0.5;entryY=0;entryDx=0;entryDy=0;labelBackgroundColor=none;fontColor=default;" edge="1" parent="1" source="kuulLkyMVZdF7MULND2Z-7" target="kuulLkyMVZdF7MULND2Z-60">
          <mxGeometry relative="1" as="geometry" />
        </mxCell>
        <mxCell id="kuulLkyMVZdF7MULND2Z-7" value="&lt;font face=&quot;Comic Sans MS&quot;&gt;How much salt do you consume?&lt;/font&gt;" style="rounded=1;whiteSpace=wrap;html=1;labelBackgroundColor=none;" vertex="1" parent="1">
          <mxGeometry x="800" width="200" height="60" as="geometry" />
        </mxCell>
        <mxCell id="kuulLkyMVZdF7MULND2Z-126" style="edgeStyle=orthogonalEdgeStyle;rounded=1;orthogonalLoop=1;jettySize=auto;html=1;exitX=0.25;exitY=1;exitDx=0;exitDy=0;entryX=0.5;entryY=0;entryDx=0;entryDy=0;labelBackgroundColor=none;fontColor=default;" edge="1" parent="1" source="kuulLkyMVZdF7MULND2Z-8" target="kuulLkyMVZdF7MULND2Z-59">
          <mxGeometry relative="1" as="geometry" />
        </mxCell>
        <mxCell id="kuulLkyMVZdF7MULND2Z-127" style="edgeStyle=orthogonalEdgeStyle;rounded=1;orthogonalLoop=1;jettySize=auto;html=1;exitX=0.75;exitY=1;exitDx=0;exitDy=0;entryX=0.5;entryY=0;entryDx=0;entryDy=0;labelBackgroundColor=none;fontColor=default;" edge="1" parent="1" source="kuulLkyMVZdF7MULND2Z-8" target="kuulLkyMVZdF7MULND2Z-58">
          <mxGeometry relative="1" as="geometry" />
        </mxCell>
        <mxCell id="kuulLkyMVZdF7MULND2Z-8" value="&lt;font face=&quot;Comic Sans MS&quot;&gt;How much water do you drink per day?&lt;/font&gt;" style="rounded=1;whiteSpace=wrap;html=1;labelBackgroundColor=none;" vertex="1" parent="1">
          <mxGeometry x="600" width="200" height="60" as="geometry" />
        </mxCell>
        <mxCell id="kuulLkyMVZdF7MULND2Z-153" style="edgeStyle=orthogonalEdgeStyle;rounded=1;orthogonalLoop=1;jettySize=auto;html=1;exitX=0.25;exitY=1;exitDx=0;exitDy=0;entryX=0.5;entryY=0;entryDx=0;entryDy=0;labelBackgroundColor=none;fontColor=default;" edge="1" parent="1" source="kuulLkyMVZdF7MULND2Z-9" target="kuulLkyMVZdF7MULND2Z-85">
          <mxGeometry relative="1" as="geometry" />
        </mxCell>
        <mxCell id="kuulLkyMVZdF7MULND2Z-154" style="edgeStyle=orthogonalEdgeStyle;rounded=1;orthogonalLoop=1;jettySize=auto;html=1;exitX=0.75;exitY=1;exitDx=0;exitDy=0;entryX=0.5;entryY=0;entryDx=0;entryDy=0;labelBackgroundColor=none;fontColor=default;" edge="1" parent="1" source="kuulLkyMVZdF7MULND2Z-9" target="kuulLkyMVZdF7MULND2Z-84">
          <mxGeometry relative="1" as="geometry" />
        </mxCell>
        <mxCell id="kuulLkyMVZdF7MULND2Z-155" style="edgeStyle=orthogonalEdgeStyle;rounded=1;orthogonalLoop=1;jettySize=auto;html=1;exitX=0.5;exitY=1;exitDx=0;exitDy=0;entryX=0.5;entryY=0;entryDx=0;entryDy=0;labelBackgroundColor=none;fontColor=default;" edge="1" parent="1" source="kuulLkyMVZdF7MULND2Z-9" target="kuulLkyMVZdF7MULND2Z-93">
          <mxGeometry relative="1" as="geometry" />
        </mxCell>
        <mxCell id="kuulLkyMVZdF7MULND2Z-9" value="&lt;font face=&quot;Comic Sans MS&quot;&gt;How many cups of coffee do you drink per day?(0-10)&lt;/font&gt;" style="rounded=1;whiteSpace=wrap;html=1;labelBackgroundColor=none;" vertex="1" parent="1">
          <mxGeometry x="3200" width="200" height="60" as="geometry" />
        </mxCell>
        <mxCell id="kuulLkyMVZdF7MULND2Z-150" style="edgeStyle=orthogonalEdgeStyle;rounded=1;orthogonalLoop=1;jettySize=auto;html=1;exitX=0.25;exitY=1;exitDx=0;exitDy=0;entryX=0.5;entryY=0;entryDx=0;entryDy=0;labelBackgroundColor=none;fontColor=default;" edge="1" parent="1" source="kuulLkyMVZdF7MULND2Z-10" target="kuulLkyMVZdF7MULND2Z-83">
          <mxGeometry relative="1" as="geometry" />
        </mxCell>
        <mxCell id="kuulLkyMVZdF7MULND2Z-151" style="edgeStyle=orthogonalEdgeStyle;rounded=1;orthogonalLoop=1;jettySize=auto;html=1;exitX=0.75;exitY=1;exitDx=0;exitDy=0;entryX=0.5;entryY=0;entryDx=0;entryDy=0;labelBackgroundColor=none;fontColor=default;" edge="1" parent="1" source="kuulLkyMVZdF7MULND2Z-10" target="kuulLkyMVZdF7MULND2Z-82">
          <mxGeometry relative="1" as="geometry" />
        </mxCell>
        <mxCell id="kuulLkyMVZdF7MULND2Z-152" style="edgeStyle=orthogonalEdgeStyle;rounded=1;orthogonalLoop=1;jettySize=auto;html=1;exitX=0.5;exitY=1;exitDx=0;exitDy=0;entryX=0.5;entryY=0;entryDx=0;entryDy=0;labelBackgroundColor=none;fontColor=default;" edge="1" parent="1" source="kuulLkyMVZdF7MULND2Z-10" target="kuulLkyMVZdF7MULND2Z-94">
          <mxGeometry relative="1" as="geometry" />
        </mxCell>
        <mxCell id="kuulLkyMVZdF7MULND2Z-10" value="&lt;font face=&quot;Comic Sans MS&quot;&gt;What proportion of carbohydrates do you have in your total diet?&lt;/font&gt;" style="rounded=1;whiteSpace=wrap;html=1;labelBackgroundColor=none;" vertex="1" parent="1">
          <mxGeometry x="3000" width="200" height="60" as="geometry" />
        </mxCell>
        <mxCell id="kuulLkyMVZdF7MULND2Z-148" style="edgeStyle=orthogonalEdgeStyle;rounded=1;orthogonalLoop=1;jettySize=auto;html=1;exitX=0.25;exitY=1;exitDx=0;exitDy=0;entryX=0.5;entryY=0;entryDx=0;entryDy=0;labelBackgroundColor=none;fontColor=default;" edge="1" parent="1" source="kuulLkyMVZdF7MULND2Z-11" target="kuulLkyMVZdF7MULND2Z-81">
          <mxGeometry relative="1" as="geometry" />
        </mxCell>
        <mxCell id="kuulLkyMVZdF7MULND2Z-149" style="edgeStyle=orthogonalEdgeStyle;rounded=1;orthogonalLoop=1;jettySize=auto;html=1;exitX=0.75;exitY=1;exitDx=0;exitDy=0;entryX=0.5;entryY=0;entryDx=0;entryDy=0;labelBackgroundColor=none;fontColor=default;" edge="1" parent="1" source="kuulLkyMVZdF7MULND2Z-11" target="kuulLkyMVZdF7MULND2Z-80">
          <mxGeometry relative="1" as="geometry" />
        </mxCell>
        <mxCell id="kuulLkyMVZdF7MULND2Z-11" value="&lt;font face=&quot;Comic Sans MS&quot;&gt;How often do you cook at home?&lt;/font&gt;" style="rounded=1;whiteSpace=wrap;html=1;labelBackgroundColor=none;" vertex="1" parent="1">
          <mxGeometry x="2800" width="200" height="60" as="geometry" />
        </mxCell>
        <mxCell id="kuulLkyMVZdF7MULND2Z-146" style="edgeStyle=orthogonalEdgeStyle;rounded=1;orthogonalLoop=1;jettySize=auto;html=1;exitX=0.25;exitY=1;exitDx=0;exitDy=0;entryX=0.5;entryY=0;entryDx=0;entryDy=0;labelBackgroundColor=none;fontColor=default;" edge="1" parent="1" source="kuulLkyMVZdF7MULND2Z-12" target="kuulLkyMVZdF7MULND2Z-79">
          <mxGeometry relative="1" as="geometry" />
        </mxCell>
        <mxCell id="kuulLkyMVZdF7MULND2Z-147" style="edgeStyle=orthogonalEdgeStyle;rounded=1;orthogonalLoop=1;jettySize=auto;html=1;exitX=0.75;exitY=1;exitDx=0;exitDy=0;entryX=0.5;entryY=0;entryDx=0;entryDy=0;labelBackgroundColor=none;fontColor=default;" edge="1" parent="1" source="kuulLkyMVZdF7MULND2Z-12" target="kuulLkyMVZdF7MULND2Z-78">
          <mxGeometry relative="1" as="geometry" />
        </mxCell>
        <mxCell id="kuulLkyMVZdF7MULND2Z-12" value="&lt;font face=&quot;Comic Sans MS&quot;&gt;How many servings of nuts and seeds do you consume per week?&lt;/font&gt;" style="rounded=1;whiteSpace=wrap;html=1;labelBackgroundColor=none;" vertex="1" parent="1">
          <mxGeometry x="2600" width="200" height="60" as="geometry" />
        </mxCell>
        <mxCell id="kuulLkyMVZdF7MULND2Z-144" style="edgeStyle=orthogonalEdgeStyle;rounded=1;orthogonalLoop=1;jettySize=auto;html=1;exitX=0.25;exitY=1;exitDx=0;exitDy=0;entryX=0.5;entryY=0;entryDx=0;entryDy=0;labelBackgroundColor=none;fontColor=default;" edge="1" parent="1" source="kuulLkyMVZdF7MULND2Z-13" target="kuulLkyMVZdF7MULND2Z-77">
          <mxGeometry relative="1" as="geometry" />
        </mxCell>
        <mxCell id="kuulLkyMVZdF7MULND2Z-145" style="edgeStyle=orthogonalEdgeStyle;rounded=1;orthogonalLoop=1;jettySize=auto;html=1;exitX=0.75;exitY=1;exitDx=0;exitDy=0;entryX=0.5;entryY=0;entryDx=0;entryDy=0;labelBackgroundColor=none;fontColor=default;" edge="1" parent="1" source="kuulLkyMVZdF7MULND2Z-13" target="kuulLkyMVZdF7MULND2Z-76">
          <mxGeometry relative="1" as="geometry" />
        </mxCell>
        <mxCell id="kuulLkyMVZdF7MULND2Z-13" value="&lt;font face=&quot;Comic Sans MS&quot;&gt;What types of meat do you consume?&lt;/font&gt;" style="rounded=1;whiteSpace=wrap;html=1;labelBackgroundColor=none;" vertex="1" parent="1">
          <mxGeometry x="2400" width="200" height="60" as="geometry" />
        </mxCell>
        <mxCell id="kuulLkyMVZdF7MULND2Z-142" style="edgeStyle=orthogonalEdgeStyle;rounded=1;orthogonalLoop=1;jettySize=auto;html=1;exitX=0.25;exitY=1;exitDx=0;exitDy=0;entryX=0.5;entryY=0;entryDx=0;entryDy=0;labelBackgroundColor=none;fontColor=default;" edge="1" parent="1" source="kuulLkyMVZdF7MULND2Z-14" target="kuulLkyMVZdF7MULND2Z-91">
          <mxGeometry relative="1" as="geometry" />
        </mxCell>
        <mxCell id="kuulLkyMVZdF7MULND2Z-143" style="edgeStyle=orthogonalEdgeStyle;rounded=1;orthogonalLoop=1;jettySize=auto;html=1;exitX=0.75;exitY=1;exitDx=0;exitDy=0;entryX=0.5;entryY=0;entryDx=0;entryDy=0;labelBackgroundColor=none;fontColor=default;" edge="1" parent="1" source="kuulLkyMVZdF7MULND2Z-14" target="kuulLkyMVZdF7MULND2Z-90">
          <mxGeometry relative="1" as="geometry" />
        </mxCell>
        <mxCell id="kuulLkyMVZdF7MULND2Z-14" value="&lt;font face=&quot;Comic Sans MS&quot;&gt;How many hours a night do you sleep?&lt;/font&gt;" style="rounded=1;whiteSpace=wrap;html=1;labelBackgroundColor=none;" vertex="1" parent="1">
          <mxGeometry x="2200" width="200" height="60" as="geometry" />
        </mxCell>
        <mxCell id="kuulLkyMVZdF7MULND2Z-140" style="edgeStyle=orthogonalEdgeStyle;rounded=1;orthogonalLoop=1;jettySize=auto;html=1;exitX=0.25;exitY=1;exitDx=0;exitDy=0;entryX=0.5;entryY=0;entryDx=0;entryDy=0;labelBackgroundColor=none;fontColor=default;" edge="1" parent="1" source="kuulLkyMVZdF7MULND2Z-15" target="kuulLkyMVZdF7MULND2Z-73">
          <mxGeometry relative="1" as="geometry" />
        </mxCell>
        <mxCell id="kuulLkyMVZdF7MULND2Z-141" style="edgeStyle=orthogonalEdgeStyle;rounded=1;orthogonalLoop=1;jettySize=auto;html=1;exitX=0.75;exitY=1;exitDx=0;exitDy=0;entryX=0.5;entryY=0;entryDx=0;entryDy=0;labelBackgroundColor=none;fontColor=default;" edge="1" parent="1" source="kuulLkyMVZdF7MULND2Z-15" target="kuulLkyMVZdF7MULND2Z-72">
          <mxGeometry relative="1" as="geometry" />
        </mxCell>
        <mxCell id="kuulLkyMVZdF7MULND2Z-15" value="&lt;font face=&quot;Comic Sans MS&quot;&gt;How often do you consume sweets and carbonated drinks?&lt;/font&gt;" style="rounded=1;whiteSpace=wrap;html=1;labelBackgroundColor=none;" vertex="1" parent="1">
          <mxGeometry x="2000" width="200" height="60" as="geometry" />
        </mxCell>
        <mxCell id="kuulLkyMVZdF7MULND2Z-138" style="edgeStyle=orthogonalEdgeStyle;rounded=1;orthogonalLoop=1;jettySize=auto;html=1;exitX=0.25;exitY=1;exitDx=0;exitDy=0;entryX=0.5;entryY=0;entryDx=0;entryDy=0;labelBackgroundColor=none;fontColor=default;" edge="1" parent="1" source="kuulLkyMVZdF7MULND2Z-16" target="kuulLkyMVZdF7MULND2Z-88">
          <mxGeometry relative="1" as="geometry" />
        </mxCell>
        <mxCell id="kuulLkyMVZdF7MULND2Z-139" style="edgeStyle=orthogonalEdgeStyle;rounded=1;orthogonalLoop=1;jettySize=auto;html=1;exitX=0.75;exitY=1;exitDx=0;exitDy=0;entryX=0.5;entryY=0;entryDx=0;entryDy=0;labelBackgroundColor=none;fontColor=default;" edge="1" parent="1" source="kuulLkyMVZdF7MULND2Z-16" target="kuulLkyMVZdF7MULND2Z-89">
          <mxGeometry relative="1" as="geometry" />
        </mxCell>
        <mxCell id="kuulLkyMVZdF7MULND2Z-16" value="&lt;font face=&quot;Comic Sans MS&quot;&gt;Do you have a habit of snacking at night?&lt;/font&gt;" style="rounded=1;whiteSpace=wrap;html=1;labelBackgroundColor=none;" vertex="1" parent="1">
          <mxGeometry x="1800" width="200" height="60" as="geometry" />
        </mxCell>
        <mxCell id="kuulLkyMVZdF7MULND2Z-136" style="edgeStyle=orthogonalEdgeStyle;rounded=1;orthogonalLoop=1;jettySize=auto;html=1;exitX=0.25;exitY=1;exitDx=0;exitDy=0;entryX=0.5;entryY=0;entryDx=0;entryDy=0;labelBackgroundColor=none;fontColor=default;" edge="1" parent="1" source="kuulLkyMVZdF7MULND2Z-18" target="kuulLkyMVZdF7MULND2Z-69">
          <mxGeometry relative="1" as="geometry" />
        </mxCell>
        <mxCell id="kuulLkyMVZdF7MULND2Z-137" style="edgeStyle=orthogonalEdgeStyle;rounded=1;orthogonalLoop=1;jettySize=auto;html=1;exitX=0.75;exitY=1;exitDx=0;exitDy=0;entryX=0.5;entryY=0;entryDx=0;entryDy=0;labelBackgroundColor=none;fontColor=default;" edge="1" parent="1" source="kuulLkyMVZdF7MULND2Z-18" target="kuulLkyMVZdF7MULND2Z-68">
          <mxGeometry relative="1" as="geometry" />
        </mxCell>
        <mxCell id="kuulLkyMVZdF7MULND2Z-18" value="&lt;font face=&quot;Comic Sans MS&quot;&gt;How much alcohol do you consume per week?&lt;/font&gt;" style="rounded=1;whiteSpace=wrap;html=1;labelBackgroundColor=none;" vertex="1" parent="1">
          <mxGeometry x="1600" width="200" height="60" as="geometry" />
        </mxCell>
        <mxCell id="kuulLkyMVZdF7MULND2Z-134" style="edgeStyle=orthogonalEdgeStyle;rounded=1;orthogonalLoop=1;jettySize=auto;html=1;exitX=0.25;exitY=1;exitDx=0;exitDy=0;entryX=0.5;entryY=0;entryDx=0;entryDy=0;labelBackgroundColor=none;fontColor=default;" edge="1" parent="1" source="kuulLkyMVZdF7MULND2Z-20" target="kuulLkyMVZdF7MULND2Z-67">
          <mxGeometry relative="1" as="geometry" />
        </mxCell>
        <mxCell id="kuulLkyMVZdF7MULND2Z-135" style="edgeStyle=orthogonalEdgeStyle;rounded=1;orthogonalLoop=1;jettySize=auto;html=1;exitX=0.75;exitY=1;exitDx=0;exitDy=0;entryX=0.5;entryY=0;entryDx=0;entryDy=0;labelBackgroundColor=none;fontColor=default;" edge="1" parent="1" source="kuulLkyMVZdF7MULND2Z-20" target="kuulLkyMVZdF7MULND2Z-66">
          <mxGeometry relative="1" as="geometry" />
        </mxCell>
        <mxCell id="kuulLkyMVZdF7MULND2Z-20" value="&lt;font face=&quot;Comic Sans MS&quot;&gt;How much time per week do you spend on physical activity?&lt;/font&gt;" style="rounded=1;whiteSpace=wrap;html=1;labelBackgroundColor=none;" vertex="1" parent="1">
          <mxGeometry x="1400" width="200" height="60" as="geometry" />
        </mxCell>
        <mxCell id="kuulLkyMVZdF7MULND2Z-132" style="edgeStyle=orthogonalEdgeStyle;rounded=1;orthogonalLoop=1;jettySize=auto;html=1;exitX=0.25;exitY=1;exitDx=0;exitDy=0;entryX=0.5;entryY=0;entryDx=0;entryDy=0;labelBackgroundColor=none;fontColor=default;" edge="1" parent="1" source="kuulLkyMVZdF7MULND2Z-21" target="kuulLkyMVZdF7MULND2Z-65">
          <mxGeometry relative="1" as="geometry" />
        </mxCell>
        <mxCell id="kuulLkyMVZdF7MULND2Z-133" style="edgeStyle=orthogonalEdgeStyle;rounded=1;orthogonalLoop=1;jettySize=auto;html=1;exitX=0.75;exitY=1;exitDx=0;exitDy=0;entryX=0.5;entryY=0;entryDx=0;entryDy=0;labelBackgroundColor=none;fontColor=default;" edge="1" parent="1" source="kuulLkyMVZdF7MULND2Z-21" target="kuulLkyMVZdF7MULND2Z-64">
          <mxGeometry relative="1" as="geometry" />
        </mxCell>
        <mxCell id="kuulLkyMVZdF7MULND2Z-21" value="&lt;font face=&quot;Comic Sans MS&quot;&gt;Are you allergic to milk?&lt;/font&gt;" style="rounded=1;whiteSpace=wrap;html=1;labelBackgroundColor=none;" vertex="1" parent="1">
          <mxGeometry x="1200" width="200" height="60" as="geometry" />
        </mxCell>
        <mxCell id="kuulLkyMVZdF7MULND2Z-22" value="1-2 times" style="shape=hexagon;perimeter=hexagonPerimeter2;whiteSpace=wrap;html=1;fixedSize=1;rounded=1;labelBackgroundColor=none;" vertex="1" parent="1">
          <mxGeometry x="100" y="80" width="90" height="40" as="geometry" />
        </mxCell>
        <mxCell id="kuulLkyMVZdF7MULND2Z-53" value="3-4 times" style="shape=hexagon;perimeter=hexagonPerimeter2;whiteSpace=wrap;html=1;fixedSize=1;rounded=1;labelBackgroundColor=none;" vertex="1" parent="1">
          <mxGeometry x="10" y="80" width="90" height="40" as="geometry" />
        </mxCell>
        <mxCell id="kuulLkyMVZdF7MULND2Z-54" value="Less than 1500 calories." style="shape=hexagon;perimeter=hexagonPerimeter2;whiteSpace=wrap;html=1;fixedSize=1;rounded=1;labelBackgroundColor=none;" vertex="1" parent="1">
          <mxGeometry x="210" y="80" width="90" height="40" as="geometry" />
        </mxCell>
        <mxCell id="kuulLkyMVZdF7MULND2Z-55" value="1500-2500 calories." style="shape=hexagon;perimeter=hexagonPerimeter2;whiteSpace=wrap;html=1;fixedSize=1;rounded=1;labelBackgroundColor=none;" vertex="1" parent="1">
          <mxGeometry x="300" y="80" width="90" height="40" as="geometry" />
        </mxCell>
        <mxCell id="kuulLkyMVZdF7MULND2Z-56" value="Less than 5 servings" style="shape=hexagon;perimeter=hexagonPerimeter2;whiteSpace=wrap;html=1;fixedSize=1;rounded=1;labelBackgroundColor=none;" vertex="1" parent="1">
          <mxGeometry x="410" y="80" width="90" height="40" as="geometry" />
        </mxCell>
        <mxCell id="kuulLkyMVZdF7MULND2Z-57" value="5 servings" style="shape=hexagon;perimeter=hexagonPerimeter2;whiteSpace=wrap;html=1;fixedSize=1;rounded=1;labelBackgroundColor=none;" vertex="1" parent="1">
          <mxGeometry x="500" y="80" width="90" height="40" as="geometry" />
        </mxCell>
        <mxCell id="kuulLkyMVZdF7MULND2Z-58" value="8 glasses" style="shape=hexagon;perimeter=hexagonPerimeter2;whiteSpace=wrap;html=1;fixedSize=1;rounded=1;labelBackgroundColor=none;" vertex="1" parent="1">
          <mxGeometry x="700" y="80" width="90" height="40" as="geometry" />
        </mxCell>
        <mxCell id="kuulLkyMVZdF7MULND2Z-59" value="Less than 8 glasses" style="shape=hexagon;perimeter=hexagonPerimeter2;whiteSpace=wrap;html=1;fixedSize=1;rounded=1;labelBackgroundColor=none;" vertex="1" parent="1">
          <mxGeometry x="610" y="80" width="90" height="40" as="geometry" />
        </mxCell>
        <mxCell id="kuulLkyMVZdF7MULND2Z-60" value="Moderately" style="shape=hexagon;perimeter=hexagonPerimeter2;whiteSpace=wrap;html=1;fixedSize=1;rounded=1;labelBackgroundColor=none;" vertex="1" parent="1">
          <mxGeometry x="900" y="80" width="90" height="40" as="geometry" />
        </mxCell>
        <mxCell id="kuulLkyMVZdF7MULND2Z-61" value="A lot of salt" style="shape=hexagon;perimeter=hexagonPerimeter2;whiteSpace=wrap;html=1;fixedSize=1;rounded=1;labelBackgroundColor=none;" vertex="1" parent="1">
          <mxGeometry x="810" y="80" width="90" height="40" as="geometry" />
        </mxCell>
        <mxCell id="kuulLkyMVZdF7MULND2Z-64" value="No" style="shape=hexagon;perimeter=hexagonPerimeter2;whiteSpace=wrap;html=1;fixedSize=1;rounded=1;labelBackgroundColor=none;" vertex="1" parent="1">
          <mxGeometry x="1300" y="80" width="90" height="40" as="geometry" />
        </mxCell>
        <mxCell id="kuulLkyMVZdF7MULND2Z-65" value="Yes" style="shape=hexagon;perimeter=hexagonPerimeter2;whiteSpace=wrap;html=1;fixedSize=1;rounded=1;labelBackgroundColor=none;" vertex="1" parent="1">
          <mxGeometry x="1210" y="80" width="90" height="40" as="geometry" />
        </mxCell>
        <mxCell id="kuulLkyMVZdF7MULND2Z-66" value="2-5 hours" style="shape=hexagon;perimeter=hexagonPerimeter2;whiteSpace=wrap;html=1;fixedSize=1;rounded=1;labelBackgroundColor=none;" vertex="1" parent="1">
          <mxGeometry x="1500" y="80" width="90" height="40" as="geometry" />
        </mxCell>
        <mxCell id="kuulLkyMVZdF7MULND2Z-67" value="Less than 2 hours" style="shape=hexagon;perimeter=hexagonPerimeter2;whiteSpace=wrap;html=1;fixedSize=1;rounded=1;labelBackgroundColor=none;" vertex="1" parent="1">
          <mxGeometry x="1410" y="80" width="90" height="40" as="geometry" />
        </mxCell>
        <mxCell id="kuulLkyMVZdF7MULND2Z-68" value="7-14 servings" style="shape=hexagon;perimeter=hexagonPerimeter2;whiteSpace=wrap;html=1;fixedSize=1;rounded=1;labelBackgroundColor=none;" vertex="1" parent="1">
          <mxGeometry x="1700" y="80" width="90" height="40" as="geometry" />
        </mxCell>
        <mxCell id="kuulLkyMVZdF7MULND2Z-69" value="More than 14 servings" style="shape=hexagon;perimeter=hexagonPerimeter2;whiteSpace=wrap;html=1;fixedSize=1;rounded=1;labelBackgroundColor=none;" vertex="1" parent="1">
          <mxGeometry x="1610" y="80" width="90" height="40" as="geometry" />
        </mxCell>
        <mxCell id="kuulLkyMVZdF7MULND2Z-72" value="Several times a week" style="shape=hexagon;perimeter=hexagonPerimeter2;whiteSpace=wrap;html=1;fixedSize=1;rounded=1;labelBackgroundColor=none;" vertex="1" parent="1">
          <mxGeometry x="2100" y="80" width="90" height="40" as="geometry" />
        </mxCell>
        <mxCell id="kuulLkyMVZdF7MULND2Z-73" value="Daily" style="shape=hexagon;perimeter=hexagonPerimeter2;whiteSpace=wrap;html=1;fixedSize=1;rounded=1;labelBackgroundColor=none;" vertex="1" parent="1">
          <mxGeometry x="2010" y="80" width="90" height="40" as="geometry" />
        </mxCell>
        <mxCell id="kuulLkyMVZdF7MULND2Z-76" value="Poultry (chicken, turkey)." style="shape=hexagon;perimeter=hexagonPerimeter2;whiteSpace=wrap;html=1;fixedSize=1;rounded=1;labelBackgroundColor=none;" vertex="1" parent="1">
          <mxGeometry x="2500" y="80" width="90" height="40" as="geometry" />
        </mxCell>
        <mxCell id="kuulLkyMVZdF7MULND2Z-77" value="Red meat (beef, pork)." style="shape=hexagon;perimeter=hexagonPerimeter2;whiteSpace=wrap;html=1;fixedSize=1;rounded=1;labelBackgroundColor=none;" vertex="1" parent="1">
          <mxGeometry x="2410" y="80" width="90" height="40" as="geometry" />
        </mxCell>
        <mxCell id="kuulLkyMVZdF7MULND2Z-78" value="2-4 servings" style="shape=hexagon;perimeter=hexagonPerimeter2;whiteSpace=wrap;html=1;fixedSize=1;rounded=1;labelBackgroundColor=none;" vertex="1" parent="1">
          <mxGeometry x="2700" y="80" width="90" height="40" as="geometry" />
        </mxCell>
        <mxCell id="kuulLkyMVZdF7MULND2Z-79" value="Less than 2 servings" style="shape=hexagon;perimeter=hexagonPerimeter2;whiteSpace=wrap;html=1;fixedSize=1;rounded=1;labelBackgroundColor=none;" vertex="1" parent="1">
          <mxGeometry x="2610" y="80" width="90" height="40" as="geometry" />
        </mxCell>
        <mxCell id="kuulLkyMVZdF7MULND2Z-80" value="Sometimes" style="shape=hexagon;perimeter=hexagonPerimeter2;whiteSpace=wrap;html=1;fixedSize=1;rounded=1;labelBackgroundColor=none;" vertex="1" parent="1">
          <mxGeometry x="2900" y="80" width="90" height="40" as="geometry" />
        </mxCell>
        <mxCell id="kuulLkyMVZdF7MULND2Z-81" value="Rarely/never" style="shape=hexagon;perimeter=hexagonPerimeter2;whiteSpace=wrap;html=1;fixedSize=1;rounded=1;labelBackgroundColor=none;" vertex="1" parent="1">
          <mxGeometry x="2810" y="80" width="90" height="40" as="geometry" />
        </mxCell>
        <mxCell id="kuulLkyMVZdF7MULND2Z-82" value="&amp;gt;40 and &amp;lt;60" style="shape=hexagon;perimeter=hexagonPerimeter2;whiteSpace=wrap;html=1;fixedSize=1;rounded=1;labelBackgroundColor=none;" vertex="1" parent="1">
          <mxGeometry x="3100" y="80" width="90" height="40" as="geometry" />
        </mxCell>
        <mxCell id="kuulLkyMVZdF7MULND2Z-83" value="&amp;lt;40" style="shape=hexagon;perimeter=hexagonPerimeter2;whiteSpace=wrap;html=1;fixedSize=1;rounded=1;labelBackgroundColor=none;" vertex="1" parent="1">
          <mxGeometry x="3010" y="80" width="90" height="40" as="geometry" />
        </mxCell>
        <mxCell id="kuulLkyMVZdF7MULND2Z-84" value="&amp;gt;2 and &amp;lt;4" style="shape=hexagon;perimeter=hexagonPerimeter2;whiteSpace=wrap;html=1;fixedSize=1;rounded=1;labelBackgroundColor=none;" vertex="1" parent="1">
          <mxGeometry x="3300" y="80" width="90" height="40" as="geometry" />
        </mxCell>
        <mxCell id="kuulLkyMVZdF7MULND2Z-85" value="&amp;lt;2" style="shape=hexagon;perimeter=hexagonPerimeter2;whiteSpace=wrap;html=1;fixedSize=1;rounded=1;labelBackgroundColor=none;" vertex="1" parent="1">
          <mxGeometry x="3210" y="80" width="90" height="40" as="geometry" />
        </mxCell>
        <mxCell id="kuulLkyMVZdF7MULND2Z-86" value="Maintain weight" style="shape=hexagon;perimeter=hexagonPerimeter2;whiteSpace=wrap;html=1;fixedSize=1;rounded=1;labelBackgroundColor=none;" vertex="1" parent="1">
          <mxGeometry x="1100" y="80" width="90" height="40" as="geometry" />
        </mxCell>
        <mxCell id="kuulLkyMVZdF7MULND2Z-87" value="To lose weight" style="shape=hexagon;perimeter=hexagonPerimeter2;whiteSpace=wrap;html=1;fixedSize=1;rounded=1;labelBackgroundColor=none;" vertex="1" parent="1">
          <mxGeometry x="1010" y="80" width="90" height="40" as="geometry" />
        </mxCell>
        <mxCell id="kuulLkyMVZdF7MULND2Z-88" value="Yes, often" style="shape=hexagon;perimeter=hexagonPerimeter2;whiteSpace=wrap;html=1;fixedSize=1;rounded=1;labelBackgroundColor=none;" vertex="1" parent="1">
          <mxGeometry x="1810" y="80" width="90" height="40" as="geometry" />
        </mxCell>
        <mxCell id="kuulLkyMVZdF7MULND2Z-89" value="Sometimes" style="shape=hexagon;perimeter=hexagonPerimeter2;whiteSpace=wrap;html=1;fixedSize=1;rounded=1;labelBackgroundColor=none;" vertex="1" parent="1">
          <mxGeometry x="1900" y="80" width="90" height="40" as="geometry" />
        </mxCell>
        <mxCell id="kuulLkyMVZdF7MULND2Z-90" value="6-8 hours" style="shape=hexagon;perimeter=hexagonPerimeter2;whiteSpace=wrap;html=1;fixedSize=1;rounded=1;labelBackgroundColor=none;" vertex="1" parent="1">
          <mxGeometry x="2300" y="80" width="90" height="40" as="geometry" />
        </mxCell>
        <mxCell id="kuulLkyMVZdF7MULND2Z-91" value="Less than 6 hours" style="shape=hexagon;perimeter=hexagonPerimeter2;whiteSpace=wrap;html=1;fixedSize=1;rounded=1;labelBackgroundColor=none;" vertex="1" parent="1">
          <mxGeometry x="2210" y="80" width="90" height="40" as="geometry" />
        </mxCell>
        <mxCell id="kuulLkyMVZdF7MULND2Z-93" value="&amp;gt;=4" style="shape=hexagon;perimeter=hexagonPerimeter2;whiteSpace=wrap;html=1;fixedSize=1;rounded=1;labelBackgroundColor=none;" vertex="1" parent="1">
          <mxGeometry x="3255" y="120" width="90" height="40" as="geometry" />
        </mxCell>
        <mxCell id="kuulLkyMVZdF7MULND2Z-94" value="&amp;gt;=60" style="shape=hexagon;perimeter=hexagonPerimeter2;whiteSpace=wrap;html=1;fixedSize=1;rounded=1;labelBackgroundColor=none;" vertex="1" parent="1">
          <mxGeometry x="3055" y="120" width="90" height="40" as="geometry" />
        </mxCell>
        <mxCell id="kuulLkyMVZdF7MULND2Z-104" value="Maintain current diet and sleep routine, consider increasing fruit and vegetable intake if possible." style="text;html=1;strokeColor=none;fillColor=none;align=center;verticalAlign=middle;whiteSpace=wrap;rounded=1;labelBackgroundColor=none;" vertex="1" parent="1">
          <mxGeometry y="600" width="230" height="30" as="geometry" />
        </mxCell>
        <mxCell id="kuulLkyMVZdF7MULND2Z-106" value="Reduce alcohol and caffeine intake for better overall health." style="text;html=1;strokeColor=none;fillColor=none;align=center;verticalAlign=middle;whiteSpace=wrap;rounded=1;labelBackgroundColor=none;" vertex="1" parent="1">
          <mxGeometry x="2385" y="770" width="230" height="30" as="geometry" />
        </mxCell>
        <mxCell id="kuulLkyMVZdF7MULND2Z-107" value="Maintain current diet and exercise routine." style="text;html=1;strokeColor=none;fillColor=none;align=center;verticalAlign=middle;whiteSpace=wrap;rounded=1;labelBackgroundColor=none;" vertex="1" parent="1">
          <mxGeometry x="2040" y="810" width="230" height="30" as="geometry" />
        </mxCell>
        <mxCell id="kuulLkyMVZdF7MULND2Z-108" value="Increase fruit and vegetable intake to at least 5 servings per day, ensure adequate sleep (at least 6-8 hours), and consider incorporating poultry (chicken, turkey) into your diet." style="text;html=1;strokeColor=none;fillColor=none;align=center;verticalAlign=middle;whiteSpace=wrap;rounded=1;labelBackgroundColor=none;" vertex="1" parent="1">
          <mxGeometry x="1690" y="860" width="230" height="30" as="geometry" />
        </mxCell>
        <mxCell id="kuulLkyMVZdF7MULND2Z-109" value="Try to cook at home more often, reduce fast food intake to once a week or less." style="text;html=1;strokeColor=none;fillColor=none;align=center;verticalAlign=middle;whiteSpace=wrap;rounded=1;labelBackgroundColor=none;" vertex="1" parent="1">
          <mxGeometry x="1280" y="830" width="230" height="30" as="geometry" />
        </mxCell>
        <mxCell id="kuulLkyMVZdF7MULND2Z-110" value="Consider incorporating poultry (chicken, turkey) into your diet, reduce caffeine intake." style="text;html=1;strokeColor=none;fillColor=none;align=center;verticalAlign=middle;whiteSpace=wrap;rounded=1;labelBackgroundColor=none;" vertex="1" parent="1">
          <mxGeometry x="990" y="790" width="230" height="30" as="geometry" />
        </mxCell>
        <mxCell id="kuulLkyMVZdF7MULND2Z-111" value="Reduce consumption of sweets and carbonated drinks, ensure adequate sleep (at least 6-8 hours)." style="text;html=1;strokeColor=none;fillColor=none;align=center;verticalAlign=middle;whiteSpace=wrap;rounded=1;labelBackgroundColor=none;" vertex="1" parent="1">
          <mxGeometry x="730" y="750" width="230" height="30" as="geometry" />
        </mxCell>
        <mxCell id="kuulLkyMVZdF7MULND2Z-112" value="Increase consumption of nuts and seeds, try to reduce late-night snacking." style="text;html=1;strokeColor=none;fillColor=none;align=center;verticalAlign=middle;whiteSpace=wrap;rounded=1;labelBackgroundColor=none;" vertex="1" parent="1">
          <mxGeometry x="480" y="720" width="230" height="30" as="geometry" />
        </mxCell>
        <mxCell id="kuulLkyMVZdF7MULND2Z-113" value="Reduce caffeine intake and increase water intake to at least 8 glasses per day." style="text;html=1;strokeColor=none;fillColor=none;align=center;verticalAlign=middle;whiteSpace=wrap;rounded=1;labelBackgroundColor=none;" vertex="1" parent="1">
          <mxGeometry x="230" y="660" width="230" height="30" as="geometry" />
        </mxCell>
        <mxCell id="kuulLkyMVZdF7MULND2Z-115" value="Increase water intake to at least 8 glasses per day, reduce salt intake, and increase physical activity to at least 2 hours per week" style="text;html=1;strokeColor=none;fillColor=none;align=center;verticalAlign=middle;whiteSpace=wrap;rounded=1;labelBackgroundColor=none;" vertex="1" parent="1">
          <mxGeometry x="2760" y="720" width="230" height="30" as="geometry" />
        </mxCell>
        <mxCell id="kuulLkyMVZdF7MULND2Z-156" value="Maintain current diet and exercise routine, but reduce fast food intake to once a week or less." style="text;html=1;strokeColor=none;fillColor=none;align=center;verticalAlign=middle;whiteSpace=wrap;rounded=1;labelBackgroundColor=none;" vertex="1" parent="1">
          <mxGeometry x="3170" y="600" width="230" height="30" as="geometry" />
        </mxCell>
        <mxCell id="kuulLkyMVZdF7MULND2Z-169" value="" style="endArrow=classic;html=1;rounded=1;exitX=0.5;exitY=1;exitDx=0;exitDy=0;entryX=0.5;entryY=0;entryDx=0;entryDy=0;labelBackgroundColor=none;fontColor=default;" edge="1" parent="1" source="kuulLkyMVZdF7MULND2Z-53" target="kuulLkyMVZdF7MULND2Z-156">
          <mxGeometry width="50" height="50" relative="1" as="geometry">
            <mxPoint x="690" y="380" as="sourcePoint" />
            <mxPoint x="80" y="200" as="targetPoint" />
          </mxGeometry>
        </mxCell>
        <mxCell id="kuulLkyMVZdF7MULND2Z-170" value="" style="endArrow=classic;html=1;rounded=1;exitX=0.5;exitY=1;exitDx=0;exitDy=0;entryX=0.5;entryY=0;entryDx=0;entryDy=0;labelBackgroundColor=none;fontColor=default;" edge="1" parent="1" source="kuulLkyMVZdF7MULND2Z-55" target="kuulLkyMVZdF7MULND2Z-156">
          <mxGeometry width="50" height="50" relative="1" as="geometry">
            <mxPoint x="690" y="380" as="sourcePoint" />
            <mxPoint x="80" y="200" as="targetPoint" />
          </mxGeometry>
        </mxCell>
        <mxCell id="kuulLkyMVZdF7MULND2Z-171" value="" style="endArrow=classic;html=1;rounded=1;exitX=0.5;exitY=1;exitDx=0;exitDy=0;entryX=0.5;entryY=0;entryDx=0;entryDy=0;labelBackgroundColor=none;fontColor=default;" edge="1" parent="1" source="kuulLkyMVZdF7MULND2Z-58" target="kuulLkyMVZdF7MULND2Z-156">
          <mxGeometry width="50" height="50" relative="1" as="geometry">
            <mxPoint x="680" y="390" as="sourcePoint" />
            <mxPoint x="88" y="200" as="targetPoint" />
          </mxGeometry>
        </mxCell>
        <mxCell id="kuulLkyMVZdF7MULND2Z-172" value="" style="endArrow=classic;html=1;rounded=1;exitX=0.5;exitY=1;exitDx=0;exitDy=0;entryX=0.5;entryY=0;entryDx=0;entryDy=0;labelBackgroundColor=none;fontColor=default;" edge="1" parent="1" source="kuulLkyMVZdF7MULND2Z-60" target="kuulLkyMVZdF7MULND2Z-156">
          <mxGeometry width="50" height="50" relative="1" as="geometry">
            <mxPoint x="660" y="410" as="sourcePoint" />
            <mxPoint x="99" y="200" as="targetPoint" />
          </mxGeometry>
        </mxCell>
        <mxCell id="kuulLkyMVZdF7MULND2Z-173" value="" style="endArrow=classic;html=1;rounded=1;exitX=0.5;exitY=1;exitDx=0;exitDy=0;entryX=0.5;entryY=0;entryDx=0;entryDy=0;labelBackgroundColor=none;fontColor=default;" edge="1" parent="1" source="kuulLkyMVZdF7MULND2Z-86" target="kuulLkyMVZdF7MULND2Z-156">
          <mxGeometry width="50" height="50" relative="1" as="geometry">
            <mxPoint x="960" y="420" as="sourcePoint" />
            <mxPoint x="106" y="200" as="targetPoint" />
          </mxGeometry>
        </mxCell>
        <mxCell id="kuulLkyMVZdF7MULND2Z-174" value="" style="endArrow=classic;html=1;rounded=1;exitX=0.5;exitY=1;exitDx=0;exitDy=0;entryX=0.5;entryY=0;entryDx=0;entryDy=0;labelBackgroundColor=none;fontColor=default;" edge="1" parent="1" source="kuulLkyMVZdF7MULND2Z-66" target="kuulLkyMVZdF7MULND2Z-156">
          <mxGeometry width="50" height="50" relative="1" as="geometry">
            <mxPoint x="1270" y="410" as="sourcePoint" />
            <mxPoint x="137" y="200" as="targetPoint" />
          </mxGeometry>
        </mxCell>
        <mxCell id="kuulLkyMVZdF7MULND2Z-176" value="" style="endArrow=classic;html=1;rounded=1;exitX=0.5;exitY=1;exitDx=0;exitDy=0;entryX=0.5;entryY=0;entryDx=0;entryDy=0;labelBackgroundColor=none;fontColor=default;" edge="1" parent="1" source="kuulLkyMVZdF7MULND2Z-57" target="kuulLkyMVZdF7MULND2Z-104">
          <mxGeometry width="50" height="50" relative="1" as="geometry">
            <mxPoint x="220" y="390" as="sourcePoint" />
            <mxPoint x="270" y="340" as="targetPoint" />
          </mxGeometry>
        </mxCell>
        <mxCell id="kuulLkyMVZdF7MULND2Z-177" value="" style="endArrow=classic;html=1;rounded=1;exitX=0.5;exitY=1;exitDx=0;exitDy=0;entryX=0.5;entryY=0;entryDx=0;entryDy=0;labelBackgroundColor=none;fontColor=default;" edge="1" parent="1" source="kuulLkyMVZdF7MULND2Z-64" target="kuulLkyMVZdF7MULND2Z-104">
          <mxGeometry width="50" height="50" relative="1" as="geometry">
            <mxPoint x="940" y="400" as="sourcePoint" />
            <mxPoint x="990" y="350" as="targetPoint" />
          </mxGeometry>
        </mxCell>
        <mxCell id="kuulLkyMVZdF7MULND2Z-178" value="" style="endArrow=classic;html=1;rounded=1;exitX=0.5;exitY=1;exitDx=0;exitDy=0;entryX=0.5;entryY=0;entryDx=0;entryDy=0;labelBackgroundColor=none;fontColor=default;" edge="1" parent="1" source="kuulLkyMVZdF7MULND2Z-90" target="kuulLkyMVZdF7MULND2Z-104">
          <mxGeometry width="50" height="50" relative="1" as="geometry">
            <mxPoint x="1990" y="420" as="sourcePoint" />
            <mxPoint x="2040" y="370" as="targetPoint" />
          </mxGeometry>
        </mxCell>
        <mxCell id="kuulLkyMVZdF7MULND2Z-179" value="" style="endArrow=classic;html=1;rounded=1;exitX=0.5;exitY=1;exitDx=0;exitDy=0;entryX=0.5;entryY=0;entryDx=0;entryDy=0;labelBackgroundColor=none;fontColor=default;" edge="1" parent="1" source="kuulLkyMVZdF7MULND2Z-76" target="kuulLkyMVZdF7MULND2Z-104">
          <mxGeometry width="50" height="50" relative="1" as="geometry">
            <mxPoint x="2680" y="430" as="sourcePoint" />
            <mxPoint x="2730" y="380" as="targetPoint" />
          </mxGeometry>
        </mxCell>
        <mxCell id="kuulLkyMVZdF7MULND2Z-180" value="" style="endArrow=classic;html=1;rounded=1;exitX=0.5;exitY=1;exitDx=0;exitDy=0;entryX=0.5;entryY=0;entryDx=0;entryDy=0;labelBackgroundColor=none;fontColor=default;" edge="1" parent="1" source="kuulLkyMVZdF7MULND2Z-93" target="kuulLkyMVZdF7MULND2Z-113">
          <mxGeometry width="50" height="50" relative="1" as="geometry">
            <mxPoint x="3030" y="490" as="sourcePoint" />
            <mxPoint x="3080" y="440" as="targetPoint" />
            <Array as="points">
              <mxPoint x="410" y="650" />
            </Array>
          </mxGeometry>
        </mxCell>
        <mxCell id="kuulLkyMVZdF7MULND2Z-181" value="" style="endArrow=classic;html=1;rounded=1;exitX=0.5;exitY=1;exitDx=0;exitDy=0;entryX=0.5;entryY=0;entryDx=0;entryDy=0;jumpStyle=none;labelBackgroundColor=none;fontColor=default;" edge="1" parent="1" source="kuulLkyMVZdF7MULND2Z-59" target="kuulLkyMVZdF7MULND2Z-113">
          <mxGeometry width="50" height="50" relative="1" as="geometry">
            <mxPoint x="440" y="400" as="sourcePoint" />
            <mxPoint x="490" y="350" as="targetPoint" />
            <Array as="points">
              <mxPoint x="370" y="620" />
            </Array>
          </mxGeometry>
        </mxCell>
        <mxCell id="kuulLkyMVZdF7MULND2Z-182" value="" style="endArrow=classic;html=1;rounded=1;exitX=0.5;exitY=1;exitDx=0;exitDy=0;entryX=0.5;entryY=0;entryDx=0;entryDy=0;labelBackgroundColor=none;fontColor=default;" edge="1" parent="1" source="kuulLkyMVZdF7MULND2Z-79" target="kuulLkyMVZdF7MULND2Z-112">
          <mxGeometry width="50" height="50" relative="1" as="geometry">
            <mxPoint x="2450" y="420" as="sourcePoint" />
            <mxPoint x="2500" y="370" as="targetPoint" />
          </mxGeometry>
        </mxCell>
        <mxCell id="kuulLkyMVZdF7MULND2Z-183" value="" style="endArrow=classic;html=1;rounded=1;exitX=0.5;exitY=1;exitDx=0;exitDy=0;entryX=0.5;entryY=0;entryDx=0;entryDy=0;labelBackgroundColor=none;fontColor=default;" edge="1" parent="1" source="kuulLkyMVZdF7MULND2Z-88" target="kuulLkyMVZdF7MULND2Z-112">
          <mxGeometry width="50" height="50" relative="1" as="geometry">
            <mxPoint x="1710" y="320" as="sourcePoint" />
            <mxPoint x="1760" y="270" as="targetPoint" />
          </mxGeometry>
        </mxCell>
        <mxCell id="kuulLkyMVZdF7MULND2Z-184" value="" style="endArrow=classic;html=1;rounded=1;exitX=0.5;exitY=1;exitDx=0;exitDy=0;entryX=0.5;entryY=0;entryDx=0;entryDy=0;labelBackgroundColor=none;fontColor=default;" edge="1" parent="1" source="kuulLkyMVZdF7MULND2Z-73" target="kuulLkyMVZdF7MULND2Z-111">
          <mxGeometry width="50" height="50" relative="1" as="geometry">
            <mxPoint x="1860" y="350" as="sourcePoint" />
            <mxPoint x="1910" y="300" as="targetPoint" />
          </mxGeometry>
        </mxCell>
        <mxCell id="kuulLkyMVZdF7MULND2Z-185" value="" style="endArrow=classic;html=1;rounded=1;exitX=0.5;exitY=1;exitDx=0;exitDy=0;entryX=0.5;entryY=0;entryDx=0;entryDy=0;labelBackgroundColor=none;fontColor=default;" edge="1" parent="1" source="kuulLkyMVZdF7MULND2Z-91" target="kuulLkyMVZdF7MULND2Z-111">
          <mxGeometry width="50" height="50" relative="1" as="geometry">
            <mxPoint x="2210" y="350" as="sourcePoint" />
            <mxPoint x="2260" y="300" as="targetPoint" />
          </mxGeometry>
        </mxCell>
        <mxCell id="kuulLkyMVZdF7MULND2Z-186" value="" style="endArrow=classic;html=1;rounded=1;exitX=0.5;exitY=1;exitDx=0;exitDy=0;entryX=0.5;entryY=0;entryDx=0;entryDy=0;labelBackgroundColor=none;fontColor=default;" edge="1" parent="1" source="kuulLkyMVZdF7MULND2Z-77" target="kuulLkyMVZdF7MULND2Z-110">
          <mxGeometry width="50" height="50" relative="1" as="geometry">
            <mxPoint x="2380" y="340" as="sourcePoint" />
            <mxPoint x="2430" y="290" as="targetPoint" />
          </mxGeometry>
        </mxCell>
        <mxCell id="kuulLkyMVZdF7MULND2Z-187" value="" style="endArrow=classic;html=1;rounded=1;exitX=0.5;exitY=1;exitDx=0;exitDy=0;entryX=0.5;entryY=0;entryDx=0;entryDy=0;labelBackgroundColor=none;fontColor=default;" edge="1" parent="1" source="kuulLkyMVZdF7MULND2Z-93" target="kuulLkyMVZdF7MULND2Z-110">
          <mxGeometry width="50" height="50" relative="1" as="geometry">
            <mxPoint x="1070" y="930" as="sourcePoint" />
            <mxPoint x="1120" y="880" as="targetPoint" />
          </mxGeometry>
        </mxCell>
        <mxCell id="kuulLkyMVZdF7MULND2Z-188" value="" style="endArrow=classic;html=1;rounded=1;exitX=0.5;exitY=1;exitDx=0;exitDy=0;entryX=0.5;entryY=0;entryDx=0;entryDy=0;labelBackgroundColor=none;fontColor=default;" edge="1" parent="1" source="kuulLkyMVZdF7MULND2Z-94" target="kuulLkyMVZdF7MULND2Z-111">
          <mxGeometry width="50" height="50" relative="1" as="geometry">
            <mxPoint x="3000" y="300" as="sourcePoint" />
            <mxPoint x="3050" y="250" as="targetPoint" />
          </mxGeometry>
        </mxCell>
        <mxCell id="kuulLkyMVZdF7MULND2Z-189" value="" style="endArrow=classic;html=1;rounded=1;entryX=0.5;entryY=0;entryDx=0;entryDy=0;exitX=0.5;exitY=1;exitDx=0;exitDy=0;labelBackgroundColor=none;fontColor=default;" edge="1" parent="1" source="kuulLkyMVZdF7MULND2Z-81" target="kuulLkyMVZdF7MULND2Z-109">
          <mxGeometry width="50" height="50" relative="1" as="geometry">
            <mxPoint x="1490" y="660" as="sourcePoint" />
            <mxPoint x="1540" y="610" as="targetPoint" />
          </mxGeometry>
        </mxCell>
        <mxCell id="kuulLkyMVZdF7MULND2Z-190" value="" style="endArrow=classic;html=1;rounded=1;exitX=0.5;exitY=1;exitDx=0;exitDy=0;entryX=0.5;entryY=0;entryDx=0;entryDy=0;labelBackgroundColor=none;fontColor=default;" edge="1" parent="1" source="kuulLkyMVZdF7MULND2Z-56" target="kuulLkyMVZdF7MULND2Z-108">
          <mxGeometry width="50" height="50" relative="1" as="geometry">
            <mxPoint x="540" y="330" as="sourcePoint" />
            <mxPoint x="590" y="280" as="targetPoint" />
          </mxGeometry>
        </mxCell>
        <mxCell id="kuulLkyMVZdF7MULND2Z-191" value="" style="endArrow=classic;html=1;rounded=1;exitX=0.5;exitY=1;exitDx=0;exitDy=0;entryX=0.5;entryY=0;entryDx=0;entryDy=0;labelBackgroundColor=none;fontColor=default;" edge="1" parent="1" source="kuulLkyMVZdF7MULND2Z-65" target="kuulLkyMVZdF7MULND2Z-108">
          <mxGeometry width="50" height="50" relative="1" as="geometry">
            <mxPoint x="1450" y="360" as="sourcePoint" />
            <mxPoint x="1500" y="310" as="targetPoint" />
          </mxGeometry>
        </mxCell>
        <mxCell id="kuulLkyMVZdF7MULND2Z-192" value="" style="endArrow=classic;html=1;rounded=1;exitX=0.5;exitY=1;exitDx=0;exitDy=0;entryX=0.5;entryY=0;entryDx=0;entryDy=0;labelBackgroundColor=none;fontColor=default;" edge="1" parent="1" source="kuulLkyMVZdF7MULND2Z-91" target="kuulLkyMVZdF7MULND2Z-108">
          <mxGeometry width="50" height="50" relative="1" as="geometry">
            <mxPoint x="2110" y="380" as="sourcePoint" />
            <mxPoint x="2160" y="330" as="targetPoint" />
          </mxGeometry>
        </mxCell>
        <mxCell id="kuulLkyMVZdF7MULND2Z-193" value="" style="endArrow=classic;html=1;rounded=1;exitX=0.5;exitY=1;exitDx=0;exitDy=0;entryX=0.5;entryY=0;entryDx=0;entryDy=0;labelBackgroundColor=none;fontColor=default;" edge="1" parent="1" source="kuulLkyMVZdF7MULND2Z-77" target="kuulLkyMVZdF7MULND2Z-108">
          <mxGeometry width="50" height="50" relative="1" as="geometry">
            <mxPoint x="2390" y="290" as="sourcePoint" />
            <mxPoint x="2440" y="240" as="targetPoint" />
          </mxGeometry>
        </mxCell>
        <mxCell id="kuulLkyMVZdF7MULND2Z-194" value="" style="endArrow=classic;html=1;rounded=1;exitX=0.5;exitY=1;exitDx=0;exitDy=0;entryX=0.5;entryY=0;entryDx=0;entryDy=0;labelBackgroundColor=none;fontColor=default;" edge="1" parent="1" source="kuulLkyMVZdF7MULND2Z-53" target="kuulLkyMVZdF7MULND2Z-107">
          <mxGeometry width="50" height="50" relative="1" as="geometry">
            <mxPoint x="410" y="330" as="sourcePoint" />
            <mxPoint x="460" y="280" as="targetPoint" />
          </mxGeometry>
        </mxCell>
        <mxCell id="kuulLkyMVZdF7MULND2Z-195" value="" style="endArrow=classic;html=1;rounded=1;exitX=0.5;exitY=1;exitDx=0;exitDy=0;entryX=0.5;entryY=0;entryDx=0;entryDy=0;labelBackgroundColor=none;fontColor=default;" edge="1" parent="1" source="kuulLkyMVZdF7MULND2Z-55" target="kuulLkyMVZdF7MULND2Z-107">
          <mxGeometry width="50" height="50" relative="1" as="geometry">
            <mxPoint x="280" y="290" as="sourcePoint" />
            <mxPoint x="330" y="240" as="targetPoint" />
          </mxGeometry>
        </mxCell>
        <mxCell id="kuulLkyMVZdF7MULND2Z-196" value="" style="endArrow=classic;html=1;rounded=1;exitX=0.5;exitY=1;exitDx=0;exitDy=0;entryX=0.5;entryY=0;entryDx=0;entryDy=0;labelBackgroundColor=none;fontColor=default;" edge="1" parent="1" source="kuulLkyMVZdF7MULND2Z-58" target="kuulLkyMVZdF7MULND2Z-107">
          <mxGeometry width="50" height="50" relative="1" as="geometry">
            <mxPoint x="680" y="240" as="sourcePoint" />
            <mxPoint x="730" y="190" as="targetPoint" />
          </mxGeometry>
        </mxCell>
        <mxCell id="kuulLkyMVZdF7MULND2Z-197" value="" style="endArrow=classic;html=1;rounded=1;exitX=0.5;exitY=1;exitDx=0;exitDy=0;entryX=0.5;entryY=0;entryDx=0;entryDy=0;labelBackgroundColor=none;fontColor=default;" edge="1" parent="1" source="kuulLkyMVZdF7MULND2Z-60" target="kuulLkyMVZdF7MULND2Z-107">
          <mxGeometry width="50" height="50" relative="1" as="geometry">
            <mxPoint x="930" y="260" as="sourcePoint" />
            <mxPoint x="980" y="210" as="targetPoint" />
          </mxGeometry>
        </mxCell>
        <mxCell id="kuulLkyMVZdF7MULND2Z-198" value="" style="endArrow=classic;html=1;rounded=1;exitX=0.5;exitY=1;exitDx=0;exitDy=0;entryX=0.5;entryY=0;entryDx=0;entryDy=0;labelBackgroundColor=none;fontColor=default;" edge="1" parent="1" source="kuulLkyMVZdF7MULND2Z-22" target="kuulLkyMVZdF7MULND2Z-115">
          <mxGeometry width="50" height="50" relative="1" as="geometry">
            <mxPoint x="90" y="210" as="sourcePoint" />
            <mxPoint x="140" y="160" as="targetPoint" />
          </mxGeometry>
        </mxCell>
        <mxCell id="kuulLkyMVZdF7MULND2Z-199" value="" style="endArrow=classic;html=1;rounded=1;exitX=0.5;exitY=1;exitDx=0;exitDy=0;entryX=0.5;entryY=0;entryDx=0;entryDy=0;labelBackgroundColor=none;fontColor=default;" edge="1" parent="1" source="kuulLkyMVZdF7MULND2Z-54" target="kuulLkyMVZdF7MULND2Z-115">
          <mxGeometry width="50" height="50" relative="1" as="geometry">
            <mxPoint x="260" y="240" as="sourcePoint" />
            <mxPoint x="310" y="190" as="targetPoint" />
          </mxGeometry>
        </mxCell>
        <mxCell id="kuulLkyMVZdF7MULND2Z-200" value="" style="endArrow=classic;html=1;rounded=1;exitX=0.5;exitY=1;exitDx=0;exitDy=0;entryX=0.5;entryY=0;entryDx=0;entryDy=0;labelBackgroundColor=none;fontColor=default;" edge="1" parent="1" source="kuulLkyMVZdF7MULND2Z-59" target="kuulLkyMVZdF7MULND2Z-115">
          <mxGeometry width="50" height="50" relative="1" as="geometry">
            <mxPoint x="680" y="320" as="sourcePoint" />
            <mxPoint x="730" y="270" as="targetPoint" />
          </mxGeometry>
        </mxCell>
        <mxCell id="kuulLkyMVZdF7MULND2Z-201" value="" style="endArrow=classic;html=1;rounded=1;exitX=0.5;exitY=1;exitDx=0;exitDy=0;entryX=0.5;entryY=0;entryDx=0;entryDy=0;labelBackgroundColor=none;fontColor=default;" edge="1" parent="1" source="kuulLkyMVZdF7MULND2Z-61" target="kuulLkyMVZdF7MULND2Z-115">
          <mxGeometry width="50" height="50" relative="1" as="geometry">
            <mxPoint x="840" y="330" as="sourcePoint" />
            <mxPoint x="890" y="280" as="targetPoint" />
          </mxGeometry>
        </mxCell>
        <mxCell id="kuulLkyMVZdF7MULND2Z-202" value="" style="endArrow=classic;html=1;rounded=1;exitX=0.5;exitY=1;exitDx=0;exitDy=0;entryX=0.5;entryY=0;entryDx=0;entryDy=0;labelBackgroundColor=none;fontColor=default;" edge="1" parent="1" source="kuulLkyMVZdF7MULND2Z-87" target="kuulLkyMVZdF7MULND2Z-115">
          <mxGeometry width="50" height="50" relative="1" as="geometry">
            <mxPoint x="990" y="410" as="sourcePoint" />
            <mxPoint x="1040" y="360" as="targetPoint" />
          </mxGeometry>
        </mxCell>
        <mxCell id="kuulLkyMVZdF7MULND2Z-203" value="" style="endArrow=classic;html=1;rounded=1;exitX=0.5;exitY=1;exitDx=0;exitDy=0;entryX=0.5;entryY=0;entryDx=0;entryDy=0;labelBackgroundColor=none;fontColor=default;" edge="1" parent="1" source="kuulLkyMVZdF7MULND2Z-67" target="kuulLkyMVZdF7MULND2Z-115">
          <mxGeometry width="50" height="50" relative="1" as="geometry">
            <mxPoint x="1280" y="290" as="sourcePoint" />
            <mxPoint x="1330" y="240" as="targetPoint" />
          </mxGeometry>
        </mxCell>
        <mxCell id="kuulLkyMVZdF7MULND2Z-205" value="" style="endArrow=classic;html=1;rounded=1;exitX=0.5;exitY=1;exitDx=0;exitDy=0;entryX=0.5;entryY=0;entryDx=0;entryDy=0;labelBackgroundColor=none;fontColor=default;" edge="1" parent="1" source="kuulLkyMVZdF7MULND2Z-93" target="kuulLkyMVZdF7MULND2Z-106">
          <mxGeometry width="50" height="50" relative="1" as="geometry">
            <mxPoint x="3280" y="240" as="sourcePoint" />
            <mxPoint x="2860" y="440" as="targetPoint" />
          </mxGeometry>
        </mxCell>
        <mxCell id="kuulLkyMVZdF7MULND2Z-206" value="" style="endArrow=classic;html=1;rounded=1;exitX=0.5;exitY=1;exitDx=0;exitDy=0;entryX=0.5;entryY=0;entryDx=0;entryDy=0;labelBackgroundColor=none;fontColor=default;" edge="1" parent="1" source="kuulLkyMVZdF7MULND2Z-69" target="kuulLkyMVZdF7MULND2Z-106">
          <mxGeometry width="50" height="50" relative="1" as="geometry">
            <mxPoint x="1810" y="330" as="sourcePoint" />
            <mxPoint x="1860" y="280" as="targetPoint" />
          </mxGeometry>
        </mxCell>
        <mxCell id="kuulLkyMVZdF7MULND2Z-218" value="" style="endArrow=none;html=1;rounded=0;" edge="1" parent="1">
          <mxGeometry width="50" height="50" relative="1" as="geometry">
            <mxPoint x="370" y="620" as="sourcePoint" />
            <mxPoint x="410" y="650" as="targetPoint" />
          </mxGeometry>
        </mxCell>
        <mxCell id="kuulLkyMVZdF7MULND2Z-220" value="" style="endArrow=none;html=1;rounded=0;" edge="1" parent="1">
          <mxGeometry width="50" height="50" relative="1" as="geometry">
            <mxPoint x="150" y="560" as="sourcePoint" />
            <mxPoint x="160" y="590" as="targetPoint" />
          </mxGeometry>
        </mxCell>
        <mxCell id="kuulLkyMVZdF7MULND2Z-221" value="" style="endArrow=none;html=1;rounded=0;" edge="1" parent="1">
          <mxGeometry width="50" height="50" relative="1" as="geometry">
            <mxPoint x="658" y="690" as="sourcePoint" />
            <mxPoint x="670" y="698" as="targetPoint" />
          </mxGeometry>
        </mxCell>
        <mxCell id="kuulLkyMVZdF7MULND2Z-222" value="" style="endArrow=none;html=1;rounded=0;" edge="1" parent="1">
          <mxGeometry width="50" height="50" relative="1" as="geometry">
            <mxPoint x="883" y="730" as="sourcePoint" />
            <mxPoint x="890" y="738" as="targetPoint" />
          </mxGeometry>
        </mxCell>
        <mxCell id="kuulLkyMVZdF7MULND2Z-223" value="" style="endArrow=none;html=1;rounded=0;" edge="1" parent="1">
          <mxGeometry width="50" height="50" relative="1" as="geometry">
            <mxPoint x="1186" y="767" as="sourcePoint" />
            <mxPoint x="1185" y="750" as="targetPoint" />
          </mxGeometry>
        </mxCell>
        <mxCell id="kuulLkyMVZdF7MULND2Z-224" value="" style="endArrow=none;html=1;rounded=0;" edge="1" parent="1">
          <mxGeometry width="50" height="50" relative="1" as="geometry">
            <mxPoint x="1719" y="813" as="sourcePoint" />
            <mxPoint x="1840" y="820" as="targetPoint" />
          </mxGeometry>
        </mxCell>
        <mxCell id="kuulLkyMVZdF7MULND2Z-225" value="" style="endArrow=none;html=1;rounded=0;" edge="1" parent="1">
          <mxGeometry width="50" height="50" relative="1" as="geometry">
            <mxPoint x="2085" y="787" as="sourcePoint" />
            <mxPoint x="2090" y="773" as="targetPoint" />
          </mxGeometry>
        </mxCell>
        <mxCell id="kuulLkyMVZdF7MULND2Z-226" value="" style="endArrow=none;html=1;rounded=0;" edge="1" parent="1">
          <mxGeometry width="50" height="50" relative="1" as="geometry">
            <mxPoint x="2448" y="730" as="sourcePoint" />
            <mxPoint x="2550" y="732" as="targetPoint" />
          </mxGeometry>
        </mxCell>
        <mxCell id="kuulLkyMVZdF7MULND2Z-227" value="" style="endArrow=none;html=1;rounded=0;" edge="1" parent="1">
          <mxGeometry width="50" height="50" relative="1" as="geometry">
            <mxPoint x="2730" y="688" as="sourcePoint" />
            <mxPoint x="2750" y="667" as="targetPoint" />
          </mxGeometry>
        </mxCell>
        <mxCell id="kuulLkyMVZdF7MULND2Z-228" value="" style="endArrow=none;html=1;rounded=0;" edge="1" parent="1">
          <mxGeometry width="50" height="50" relative="1" as="geometry">
            <mxPoint x="3150" y="580" as="sourcePoint" />
            <mxPoint x="3160" y="565" as="targetPoint" />
          </mxGeometry>
        </mxCell>
      </root>
    </mxGraphModel>
  </diagram>
</mxfile>
